<svg width="175" height="29" viewBox="0 0 175 29" fill="none" xmlns="http://www.w3.org/2000/svg">
<path d="M9.296 28.432C7.88 28.432 6.62 28.192 5.516 27.712C4.436 27.232 3.524 26.56 2.78 25.696C2.036 24.832 1.472 23.8 1.088 22.6C0.704 21.4 0.512 20.08 0.512 18.64C0.512 17.104 0.74 15.736 1.196 14.536C1.652 13.312 2.288 12.28 3.104 11.44C3.92 10.6 4.88 9.964 5.984 9.532C7.112 9.076 8.336 8.848 9.656 8.848C11.72 8.848 13.328 9.28 14.48 10.144C15.656 11.008 16.244 12.112 16.244 13.456C16.244 14.296 16.016 14.956 15.56 15.436C15.104 15.892 14.492 16.12 13.724 16.12C12.932 16.12 12.332 15.904 11.924 15.472C11.516 15.016 11.312 14.452 11.312 13.78C11.312 13.228 11.456 12.748 11.744 12.34C12.032 11.932 12.404 11.632 12.86 11.44V11.26C12.572 11.14 12.212 11.032 11.78 10.936C11.348 10.816 10.808 10.756 10.16 10.756C9.368 10.756 8.648 10.9 8 11.188C7.352 11.476 6.8 11.884 6.344 12.412C5.888 12.916 5.528 13.528 5.264 14.248C5.024 14.968 4.904 15.772 4.904 16.66V19.792C4.904 21.592 5.348 23.02 6.236 24.076C7.124 25.108 8.336 25.624 9.872 25.624C11.312 25.624 12.428 25.312 13.22 24.688C14.036 24.064 14.66 23.296 15.092 22.384L16.64 23.32C16.424 23.944 16.112 24.556 15.704 25.156C15.296 25.756 14.792 26.308 14.192 26.812C13.592 27.292 12.884 27.688 12.068 28C11.252 28.288 10.328 28.432 9.296 28.432ZM24.8654 28.432C22.9934 28.432 21.5774 27.976 20.6174 27.064C19.6814 26.128 19.2134 24.856 19.2134 23.248C19.2134 21.424 19.8614 20.044 21.1574 19.108C22.4534 18.172 24.5654 17.704 27.4934 17.704H30.0854V15.256C30.0854 13.792 29.7614 12.676 29.1134 11.908C28.4654 11.14 27.4454 10.756 26.0534 10.756C24.8774 10.756 23.9894 10.924 23.3894 11.26V11.404C23.6534 11.524 23.8934 11.74 24.1094 12.052C24.3494 12.34 24.4694 12.748 24.4694 13.276C24.4694 13.948 24.2654 14.488 23.8574 14.896C23.4734 15.304 22.9094 15.508 22.1654 15.508C21.5414 15.508 21.0134 15.304 20.5814 14.896C20.1734 14.464 19.9694 13.888 19.9694 13.168C19.9694 12.616 20.1254 12.088 20.4374 11.584C20.7734 11.056 21.2534 10.588 21.8774 10.18C22.5014 9.772 23.2574 9.448 24.1454 9.208C25.0574 8.968 26.1014 8.848 27.2774 8.848C29.5334 8.848 31.2374 9.376 32.3894 10.432C33.5414 11.488 34.1174 12.964 34.1174 14.86V26.092H36.5654V27.712C36.2294 27.904 35.7974 28.072 35.2694 28.216C34.7414 28.36 34.1774 28.432 33.5774 28.432C32.4734 28.432 31.6574 28.156 31.1294 27.604C30.6254 27.028 30.3734 26.296 30.3734 25.408V25.228H30.1934C30.0254 25.636 29.8094 26.032 29.5454 26.416C29.2814 26.776 28.9334 27.112 28.5014 27.424C28.0934 27.736 27.5894 27.976 26.9894 28.144C26.3894 28.336 25.6814 28.432 24.8654 28.432ZM26.4494 25.912C27.5054 25.912 28.3694 25.66 29.0414 25.156C29.7374 24.652 30.0854 23.824 30.0854 22.672V19.468H27.9254C26.2214 19.468 25.0334 19.744 24.3614 20.296C23.6894 20.848 23.3534 21.64 23.3534 22.672V23.356C23.3534 24.22 23.6294 24.868 24.1814 25.3C24.7334 25.708 25.4894 25.912 26.4494 25.912ZM39.2559 26.056H41.7039V12.16L39.2559 11.692V10.108L45.6279 8.848V12.196H45.8079C45.9759 11.764 46.1799 11.356 46.4199 10.972C46.6839 10.564 46.9959 10.204 47.3559 9.892C47.7399 9.58 48.1719 9.328 48.6519 9.136C49.1559 8.944 49.7199 8.848 50.3439 8.848C51.4479 8.848 52.3239 9.124 52.9719 9.676C53.6439 10.228 53.9799 11.02 53.9799 12.052C53.9799 12.868 53.7639 13.516 53.3319 13.996C52.9239 14.452 52.3599 14.68 51.6399 14.68C50.8959 14.68 50.3079 14.488 49.8759 14.104C49.4679 13.696 49.2639 13.192 49.2639 12.592C49.2639 12.184 49.3479 11.848 49.5159 11.584C49.6839 11.296 49.8879 11.128 50.1279 11.08V10.972C50.0559 10.948 49.9719 10.936 49.8759 10.936C49.7799 10.912 49.6359 10.9 49.4439 10.9C48.9879 10.9 48.5319 11.02 48.0759 11.26C47.6439 11.5 47.2479 11.812 46.8879 12.196C46.5519 12.556 46.2759 12.976 46.0599 13.456C45.8439 13.912 45.7359 14.368 45.7359 14.824V26.056H48.9039V28H39.2559V26.056ZM64.6311 28.432C63.2391 28.432 62.0031 28.204 60.9231 27.748C59.8431 27.268 58.9311 26.596 58.1871 25.732C57.4431 24.868 56.8671 23.836 56.4591 22.636C56.0751 21.436 55.8831 20.104 55.8831 18.64C55.8831 17.152 56.0871 15.808 56.4951 14.608C56.9271 13.408 57.5151 12.388 58.2591 11.548C59.0271 10.684 59.9271 10.024 60.9591 9.568C62.0151 9.088 63.1671 8.848 64.4151 8.848C65.6871 8.848 66.8271 9.064 67.8351 9.496C68.8431 9.904 69.6951 10.492 70.3911 11.26C71.1111 12.028 71.6631 12.952 72.0471 14.032C72.4311 15.112 72.6231 16.312 72.6231 17.632V18.604H60.2391V19.756C60.2391 21.628 60.7071 23.08 61.6431 24.112C62.5791 25.12 63.8391 25.624 65.4231 25.624C66.8151 25.624 67.9311 25.324 68.7711 24.724C69.6351 24.1 70.2711 23.332 70.6791 22.42L72.2271 23.356C72.0111 23.98 71.6871 24.592 71.2551 25.192C70.8471 25.792 70.3311 26.332 69.7071 26.812C69.0831 27.292 68.3511 27.688 67.5111 28C66.6711 28.288 65.7111 28.432 64.6311 28.432ZM60.2391 16.696H68.4471V16.3C68.4471 14.572 68.1111 13.24 67.4391 12.304C66.7911 11.344 65.7831 10.864 64.4151 10.864C63.0711 10.864 62.0391 11.332 61.3191 12.268C60.5991 13.18 60.2391 14.5 60.2391 16.228V16.696Z" fill="#034144"/>
<path d="M75.5346 26.056H77.9826V11.368H75.5346V9.28H77.9826V7.012C77.9826 6.052 78.1386 5.176 78.4506 4.384C78.7626 3.592 79.2066 2.92 79.7826 2.368C80.3826 1.816 81.0906 1.396 81.9066 1.108C82.7466 0.795998 83.6826 0.639998 84.7146 0.639998C86.1546 0.639998 87.2586 0.939999 88.0266 1.54C88.8186 2.14 89.2146 2.908 89.2146 3.844C89.2146 4.54 89.0106 5.092 88.6026 5.5C88.2186 5.908 87.7146 6.112 87.0906 6.112C86.4426 6.112 85.9386 5.932 85.5786 5.572C85.2186 5.188 85.0386 4.72 85.0386 4.168C85.0386 3.736 85.1346 3.388 85.3266 3.124C85.5186 2.836 85.7466 2.632 86.0106 2.512V2.404C85.7226 2.332 85.3506 2.296 84.8946 2.296C82.9746 2.296 82.0146 3.652 82.0146 6.364V9.28H85.9026V11.368H82.0146V26.056H85.1826V28H75.5346V26.056ZM96.7639 28.432C95.3719 28.432 94.1359 28.204 93.0559 27.748C91.9759 27.268 91.0639 26.596 90.3199 25.732C89.5759 24.868 88.9999 23.836 88.5919 22.636C88.2079 21.436 88.0159 20.104 88.0159 18.64C88.0159 17.152 88.2199 15.808 88.6279 14.608C89.0599 13.408 89.6479 12.388 90.3919 11.548C91.1599 10.684 92.0599 10.024 93.0919 9.568C94.1479 9.088 95.2999 8.848 96.5479 8.848C97.8199 8.848 98.9599 9.064 99.9679 9.496C100.976 9.904 101.828 10.492 102.524 11.26C103.244 12.028 103.796 12.952 104.18 14.032C104.564 15.112 104.756 16.312 104.756 17.632V18.604H92.3719V19.756C92.3719 21.628 92.8399 23.08 93.7759 24.112C94.7119 25.12 95.9719 25.624 97.5559 25.624C98.9479 25.624 100.064 25.324 100.904 24.724C101.768 24.1 102.404 23.332 102.812 22.42L104.36 23.356C104.144 23.98 103.82 24.592 103.388 25.192C102.98 25.792 102.464 26.332 101.84 26.812C101.216 27.292 100.484 27.688 99.6439 28C98.8039 28.288 97.8439 28.432 96.7639 28.432ZM92.3719 16.696H100.58V16.3C100.58 14.572 100.244 13.24 99.5719 12.304C98.9239 11.344 97.9159 10.864 96.5479 10.864C95.2039 10.864 94.1719 11.332 93.4519 12.268C92.7319 13.18 92.3719 14.5 92.3719 16.228V16.696ZM107.775 26.056H110.223V12.16L107.775 11.692V10.108L114.147 8.848V12.196H114.327C114.471 11.788 114.687 11.38 114.975 10.972C115.287 10.564 115.659 10.204 116.091 9.892C116.547 9.58 117.063 9.328 117.639 9.136C118.239 8.944 118.911 8.848 119.655 8.848C121.935 8.848 123.555 9.436 124.515 10.612C125.475 11.764 125.955 13.504 125.955 15.832V26.056H128.403V28H119.547V26.056H121.923V16.048C121.923 14.488 121.623 13.348 121.023 12.628C120.423 11.908 119.475 11.548 118.179 11.548C117.699 11.548 117.219 11.62 116.739 11.764C116.283 11.884 115.863 12.088 115.479 12.376C115.119 12.64 114.819 12.976 114.579 13.384C114.363 13.792 114.255 14.284 114.255 14.86V26.056H116.631V28H107.775V26.056ZM139.831 28.432C138.415 28.432 137.155 28.192 136.051 27.712C134.971 27.232 134.059 26.56 133.315 25.696C132.571 24.832 132.007 23.8 131.623 22.6C131.239 21.4 131.047 20.08 131.047 18.64C131.047 17.104 131.275 15.736 131.731 14.536C132.187 13.312 132.823 12.28 133.639 11.44C134.455 10.6 135.415 9.964 136.519 9.532C137.647 9.076 138.871 8.848 140.191 8.848C142.255 8.848 143.863 9.28 145.015 10.144C146.191 11.008 146.779 12.112 146.779 13.456C146.779 14.296 146.551 14.956 146.095 15.436C145.639 15.892 145.027 16.12 144.259 16.12C143.467 16.12 142.867 15.904 142.459 15.472C142.051 15.016 141.847 14.452 141.847 13.78C141.847 13.228 141.991 12.748 142.279 12.34C142.567 11.932 142.939 11.632 143.395 11.44V11.26C143.107 11.14 142.747 11.032 142.315 10.936C141.883 10.816 141.343 10.756 140.695 10.756C139.903 10.756 139.183 10.9 138.535 11.188C137.887 11.476 137.335 11.884 136.879 12.412C136.423 12.916 136.063 13.528 135.799 14.248C135.559 14.968 135.439 15.772 135.439 16.66V19.792C135.439 21.592 135.883 23.02 136.771 24.076C137.659 25.108 138.871 25.624 140.407 25.624C141.847 25.624 142.963 25.312 143.755 24.688C144.571 24.064 145.195 23.296 145.627 22.384L147.175 23.32C146.959 23.944 146.647 24.556 146.239 25.156C145.831 25.756 145.327 26.308 144.727 26.812C144.127 27.292 143.419 27.688 142.603 28C141.787 28.288 140.863 28.432 139.831 28.432ZM158.393 28.432C157.001 28.432 155.765 28.204 154.685 27.748C153.605 27.268 152.693 26.596 151.949 25.732C151.205 24.868 150.629 23.836 150.221 22.636C149.837 21.436 149.645 20.104 149.645 18.64C149.645 17.152 149.849 15.808 150.257 14.608C150.689 13.408 151.277 12.388 152.021 11.548C152.789 10.684 153.689 10.024 154.721 9.568C155.777 9.088 156.929 8.848 158.177 8.848C159.449 8.848 160.589 9.064 161.597 9.496C162.605 9.904 163.457 10.492 164.153 11.26C164.873 12.028 165.425 12.952 165.809 14.032C166.193 15.112 166.385 16.312 166.385 17.632V18.604H154.001V19.756C154.001 21.628 154.469 23.08 155.405 24.112C156.341 25.12 157.601 25.624 159.185 25.624C160.577 25.624 161.693 25.324 162.533 24.724C163.397 24.1 164.033 23.332 164.441 22.42L165.989 23.356C165.773 23.98 165.449 24.592 165.017 25.192C164.609 25.792 164.093 26.332 163.469 26.812C162.845 27.292 162.113 27.688 161.273 28C160.433 28.288 159.473 28.432 158.393 28.432ZM154.001 16.696H162.209V16.3C162.209 14.572 161.873 13.24 161.201 12.304C160.553 11.344 159.545 10.864 158.177 10.864C156.833 10.864 155.801 11.332 155.081 12.268C154.361 13.18 154.001 14.5 154.001 16.228V16.696ZM172.013 28.432C171.173 28.432 170.513 28.18 170.033 27.676C169.577 27.172 169.349 26.572 169.349 25.876V25.66C169.349 24.964 169.577 24.364 170.033 23.86C170.513 23.356 171.173 23.104 172.013 23.104C172.853 23.104 173.501 23.356 173.957 23.86C174.437 24.364 174.677 24.964 174.677 25.66V25.876C174.677 26.572 174.437 27.172 173.957 27.676C173.501 28.18 172.853 28.432 172.013 28.432Z" fill="#00AFAA"/>
</svg>
